<?xml version="1.0" encoding="UTF-8"?>
<svg version="1.1" xmlns="http://www.w3.org/2000/svg" width="500" height="500">
<path d="M0 0 C0.89489136 -0.00040283 1.78978271 -0.00080566 2.71179199 -0.0012207 C16.29650642 0.0340785 28.80358271 0.7901655 41.6875 5.4375 C42.92886719 5.86361572 42.92886719 5.86361572 44.1953125 6.29833984 C58.17938782 11.17005793 72.9045329 17.39230295 83.375 28.125 C88.39342909 32.46502793 93.53078588 31.82280865 99.8125 31.4375 C102.59282174 31.20831998 105.36842434 30.94484122 108.14550781 30.6796875 C108.98436523 30.59976563 109.82322266 30.51984375 110.6875 30.4375 C111.4412793 30.35757813 112.19505859 30.27765625 112.97167969 30.1953125 C116.70693603 29.9571527 118.4318818 30.25140139 121.48828125 32.4765625 C123.92086382 35.75169142 125.48288329 39.01373768 126.875 42.8125 C127.12185547 43.44671875 127.36871094 44.0809375 127.62304688 44.734375 C129.72517924 50.22794757 131.6875 55.49876516 131.6875 61.4375 C132.38488281 61.28023437 133.08226562 61.12296875 133.80078125 60.9609375 C142.12430767 59.45166478 150.01937477 59.45572751 157.46484375 63.765625 C164.38423511 68.97036929 168.43816313 75.91523776 169.6875 84.4375 C171.23595101 103.87056018 165.4122422 122.04152139 153.3125 137.375 C148.87203749 142.47187871 144.06264584 147.32231273 138.6875 151.4375 C138.0275 151.4375 137.3675 151.4375 136.6875 151.4375 C136.61273438 152.21609375 136.53796875 152.9946875 136.4609375 153.796875 C134.64503739 169.24982885 129.98645391 183.78758292 123.0078125 197.6640625 C121.54422172 200.22652352 121.54422172 200.22652352 121.6875 202.4375 C122.41453125 202.59605469 123.1415625 202.75460938 123.890625 202.91796875 C144.92688716 207.79946035 162.84475611 217.88176732 174.71875 236.24609375 C182.76840292 249.29483668 186.38559457 261.92083147 186.20898438 277.17553711 C186.18754781 279.3701054 186.20889495 281.5613899 186.234375 283.75585938 C186.26087067 296.26365797 183.7316757 307.62899107 177.8125 318.75 C177.46227783 319.42458252 177.11205566 320.09916504 176.7512207 320.79418945 C162.71499238 347.43188872 139.68814962 365.10325733 112.6875 377.4375 C111.55183594 377.96859375 110.41617187 378.4996875 109.24609375 379.046875 C75.40500527 394.26164016 36.28798423 400.51586703 -0.59765625 400.640625 C-1.25798796 400.64345238 -1.91831966 400.64627975 -2.59866142 400.64919281 C-6.09597017 400.66405528 -9.59323907 400.67336519 -13.09057617 400.67773438 C-15.93445742 400.68210858 -18.77803351 400.69597738 -21.62182617 400.71875 C-37.41848403 400.84264334 -52.78593775 400.70162386 -68.3125 397.4375 C-69.36832275 397.23866211 -70.42414551 397.03982422 -71.51196289 396.83496094 C-95.08719744 392.30529335 -116.98351098 384.29912511 -135.3125 368.4375 C-136.34375 367.65375 -137.375 366.87 -138.4375 366.0625 C-151.95845597 353.71727933 -161.90038773 335.26696058 -162.91233826 316.83007812 C-162.9991514 313.81247076 -163.00635481 310.80190744 -162.96435547 307.78344727 C-162.93753559 305.50302589 -162.96427711 303.22753992 -162.99609375 300.94726562 C-163.05008522 277.56660304 -152.98889711 253.7145665 -137.3125 236.4375 C-133.40665641 235.13555214 -132.02595493 235.72931073 -128.3125 237.4375 C-127.508125 238.406875 -126.70375 239.37625 -125.875 240.375 C-122.13293269 244.84722678 -119.03175359 246.10588371 -113.4296875 246.7890625 C-105.76225121 247.14010175 -99.90339182 245.58226549 -92.89453125 242.53125 C-90.3125 241.4375 -90.3125 241.4375 -88.3125 241.4375 C-88.9725 240.7775 -89.6325 240.1175 -90.3125 239.4375 C-90.7765625 238.96828125 -91.240625 238.4990625 -91.71875 238.015625 C-92.78155935 236.96323535 -93.86533236 235.93160624 -94.96875 234.921875 C-105.73695777 224.79245922 -115.3420924 212.00660819 -121.3125 198.4375 C-121.3125 197.7775 -121.3125 197.1175 -121.3125 196.4375 C-121.9725 196.7675 -122.6325 197.0975 -123.3125 197.4375 C-127.67209836 197.48032513 -131.34230948 196.96477746 -135.1875 194.875 C-140.20934504 189.11464834 -140.84873326 182.94183734 -140.6796875 175.55078125 C-140.00226844 169.80713245 -137.88592395 164.58434789 -135.3125 159.4375 C-135.40419323 156.65416667 -135.55412506 153.90116694 -135.75 151.125 C-138.19159265 111.37539991 -127.64352218 74.74024061 -101.3125 44.4375 C-82.38541622 23.21290894 -56.84186451 9.03079842 -29.3125 2.4375 C-28.34509888 2.1736853 -28.34509888 2.1736853 -27.3581543 1.90454102 C-18.39278808 -0.26891059 -9.16882026 -0.00420376 0 0 Z " fill="#F4E42C" transform="translate(238.3125,49.5625)"/>
<path d="M0 0 C0.89489136 -0.00040283 1.78978271 -0.00080566 2.71179199 -0.0012207 C16.29650642 0.0340785 28.80358271 0.7901655 41.6875 5.4375 C42.92886719 5.86361572 42.92886719 5.86361572 44.1953125 6.29833984 C58.17938782 11.17005793 72.9045329 17.39230295 83.375 28.125 C88.39342909 32.46502793 93.53078588 31.82280865 99.8125 31.4375 C102.59282174 31.20831998 105.36842434 30.94484122 108.14550781 30.6796875 C108.98436523 30.59976563 109.82322266 30.51984375 110.6875 30.4375 C111.4412793 30.35757813 112.19505859 30.27765625 112.97167969 30.1953125 C116.70693603 29.9571527 118.4318818 30.25140139 121.48828125 32.4765625 C123.92086382 35.75169142 125.48288329 39.01373768 126.875 42.8125 C127.12185547 43.44671875 127.36871094 44.0809375 127.62304688 44.734375 C129.72517924 50.22794757 131.6875 55.49876516 131.6875 61.4375 C132.38488281 61.28023437 133.08226562 61.12296875 133.80078125 60.9609375 C142.12430767 59.45166478 150.01937477 59.45572751 157.46484375 63.765625 C164.38423511 68.97036929 168.43816313 75.91523776 169.6875 84.4375 C171.23595101 103.87056018 165.4122422 122.04152139 153.3125 137.375 C148.87203749 142.47187871 144.06264584 147.32231273 138.6875 151.4375 C138.0275 151.4375 137.3675 151.4375 136.6875 151.4375 C136.61273438 152.21609375 136.53796875 152.9946875 136.4609375 153.796875 C134.64503739 169.24982885 129.98645391 183.78758292 123.0078125 197.6640625 C121.54422172 200.22652352 121.54422172 200.22652352 121.6875 202.4375 C122.41453125 202.59605469 123.1415625 202.75460938 123.890625 202.91796875 C144.92688716 207.79946035 162.84475611 217.88176732 174.71875 236.24609375 C182.76840292 249.29483668 186.38559457 261.92083147 186.20898438 277.17553711 C186.18754781 279.3701054 186.20889495 281.5613899 186.234375 283.75585938 C186.26087067 296.26365797 183.7316757 307.62899107 177.8125 318.75 C177.46227783 319.42458252 177.11205566 320.09916504 176.7512207 320.79418945 C162.71499238 347.43188872 139.68814962 365.10325733 112.6875 377.4375 C111.55183594 377.96859375 110.41617187 378.4996875 109.24609375 379.046875 C75.40500527 394.26164016 36.28798423 400.51586703 -0.59765625 400.640625 C-1.25798796 400.64345238 -1.91831966 400.64627975 -2.59866142 400.64919281 C-6.09597017 400.66405528 -9.59323907 400.67336519 -13.09057617 400.67773438 C-15.93445742 400.68210858 -18.77803351 400.69597738 -21.62182617 400.71875 C-37.41848403 400.84264334 -52.78593775 400.70162386 -68.3125 397.4375 C-69.36832275 397.23866211 -70.42414551 397.03982422 -71.51196289 396.83496094 C-95.08719744 392.30529335 -116.98351098 384.29912511 -135.3125 368.4375 C-136.34375 367.65375 -137.375 366.87 -138.4375 366.0625 C-151.95845597 353.71727933 -161.90038773 335.26696058 -162.91233826 316.83007812 C-162.9991514 313.81247076 -163.00635481 310.80190744 -162.96435547 307.78344727 C-162.93753559 305.50302589 -162.96427711 303.22753992 -162.99609375 300.94726562 C-163.05008522 277.56660304 -152.98889711 253.7145665 -137.3125 236.4375 C-133.40665641 235.13555214 -132.02595493 235.72931073 -128.3125 237.4375 C-127.508125 238.406875 -126.70375 239.37625 -125.875 240.375 C-122.13293269 244.84722678 -119.03175359 246.10588371 -113.4296875 246.7890625 C-105.76225121 247.14010175 -99.90339182 245.58226549 -92.89453125 242.53125 C-90.3125 241.4375 -90.3125 241.4375 -88.3125 241.4375 C-88.9725 240.7775 -89.6325 240.1175 -90.3125 239.4375 C-90.7765625 238.96828125 -91.240625 238.4990625 -91.71875 238.015625 C-92.78155935 236.96323535 -93.86533236 235.93160624 -94.96875 234.921875 C-105.73695777 224.79245922 -115.3420924 212.00660819 -121.3125 198.4375 C-121.3125 197.7775 -121.3125 197.1175 -121.3125 196.4375 C-121.9725 196.7675 -122.6325 197.0975 -123.3125 197.4375 C-127.67209836 197.48032513 -131.34230948 196.96477746 -135.1875 194.875 C-140.20934504 189.11464834 -140.84873326 182.94183734 -140.6796875 175.55078125 C-140.00226844 169.80713245 -137.88592395 164.58434789 -135.3125 159.4375 C-135.40419323 156.65416667 -135.55412506 153.90116694 -135.75 151.125 C-138.19159265 111.37539991 -127.64352218 74.74024061 -101.3125 44.4375 C-82.38541622 23.21290894 -56.84186451 9.03079842 -29.3125 2.4375 C-28.34509888 2.1736853 -28.34509888 2.1736853 -27.3581543 1.90454102 C-18.39278808 -0.26891059 -9.16882026 -0.00420376 0 0 Z M-71.5 134.96484375 C-72.11077393 135.5052832 -72.72154785 136.04572266 -73.35083008 136.60253906 C-73.99818115 137.18745117 -74.64553223 137.77236328 -75.3125 138.375 C-76.66946571 139.57807291 -78.02754565 140.7798902 -79.38671875 141.98046875 C-80.05493652 142.57263184 -80.7231543 143.16479492 -81.41162109 143.77490234 C-83.93255963 145.97983317 -86.5166271 148.08662168 -89.125 150.1875 C-93.52941661 153.75546954 -97.75885369 157.47686277 -101.94921875 161.29296875 C-104.83658577 163.91307535 -107.77266491 166.47366753 -110.71875 169.02734375 C-114.08002501 172.00141306 -114.76368846 173.364095 -115.0625 177.875 C-114.85792819 192.06913664 -104.13666851 205.98470979 -95.3125 216.4375 C-94.48234375 217.43007813 -93.6521875 218.42265625 -92.796875 219.4453125 C-78.18626438 236.39578736 -59.18352962 247.82934142 -38.3125 255.4375 C-33.45409292 257.29590708 -33.45409292 257.29590708 -32.3125 258.4375 C-32.27157063 260.77047433 -32.27008277 263.10455225 -32.3125 265.4375 C-38.98042051 265.85855124 -43.7485592 264.56162999 -49.875 262 C-50.74253906 261.6481665 -51.61007813 261.29633301 -52.50390625 260.93383789 C-58.92796469 258.24081119 -64.86270121 255.02980007 -70.64282227 251.14477539 C-73.7321355 249.03346353 -73.7321355 249.03346353 -77.33203125 248.51171875 C-77.98558594 248.81722656 -78.63914062 249.12273437 -79.3125 249.4375 C-80.27542969 249.86804688 -81.23835938 250.29859375 -82.23046875 250.7421875 C-83.30941406 251.26039063 -84.38835937 251.77859375 -85.5 252.3125 C-87.76957473 253.35690607 -90.04031431 254.39878654 -92.3125 255.4375 C-93.0446875 255.788125 -93.776875 256.13875 -94.53125 256.5 C-103.02614891 260.0058313 -114.43615307 260.15495552 -123.0390625 257.125 C-125.89321928 255.68056056 -128.59239478 254.11606066 -131.3125 252.4375 C-132.7975 251.9425 -132.7975 251.9425 -134.3125 251.4375 C-147.0551791 273.0639641 -156.44743939 297.56317604 -150.0625 323.05859375 C-142.68102761 346.47170147 -129.22092733 360.56688715 -108.14453125 372.18359375 C-54.76164657 399.8763968 25.81864793 394.17091128 81.76367188 376.46386719 C94.91009526 372.11494423 107.58433488 367.17887491 119.6875 360.4375 C120.61731689 359.93597412 120.61731689 359.93597412 121.56591797 359.42431641 C141.82965637 348.43531556 157.0557008 332.86239498 167.6875 312.4375 C168.31978516 311.26960938 168.31978516 311.26960938 168.96484375 310.078125 C176.2359676 295.4810009 177.17135544 275.47428788 173.0625 259.8125 C167.48531235 243.31494493 157.25068571 230.32528853 141.89453125 221.90625 C139.19169772 220.6269868 136.48243669 219.49981114 133.6875 218.4375 C132.69621094 218.05722656 131.70492188 217.67695313 130.68359375 217.28515625 C127.70738007 216.21706424 124.72996955 215.29688564 121.6875 214.4375 C120.35138672 214.01404297 120.35138672 214.01404297 118.98828125 213.58203125 C116.21423094 212.94905499 114.44915817 212.72573243 111.6875 213.4375 C109.40326103 215.72173897 107.85533731 218.20161537 106.125 220.9296875 C89.01709585 246.93549634 55.95982773 262.99472011 26.51953125 269.41015625 C21.00139664 270.36900358 16.15842866 270.70980899 10.6875 269.4375 C10.6875 267.1275 10.6875 264.8175 10.6875 262.4375 C15.26412084 261.06102901 19.71733118 260.04559407 24.4375 259.25 C45.61546865 255.24393705 65.28666575 245.2544912 81.6875 231.4375 C82.58082031 230.69628906 83.47414063 229.95507812 84.39453125 229.19140625 C103.11028442 213.0630844 120.74755054 185.65684293 122.6875 160.4375 C120.83125 161.05625 120.83125 161.05625 118.9375 161.6875 C118.11507813 161.95949219 117.29265625 162.23148438 116.4453125 162.51171875 C114.55983224 163.14466326 112.67976216 163.79389509 110.8046875 164.45703125 C95.78865069 169.69108064 79.99761426 172.147073 64.6875 166.4375 C59.66957189 163.90081259 55.14916135 160.84458685 50.6875 157.4375 C50.10484375 157.94539063 49.5221875 158.45328125 48.921875 158.9765625 C31.64611572 173.48168114 13.14625822 176.74693136 -8.7265625 175.1953125 C-21.1072113 173.68997307 -33.47687968 169.17430594 -43.3125 161.4375 C-43.88742188 161.0353125 -44.46234375 160.633125 -45.0546875 160.21875 C-53.9167682 153.52114063 -60.40101074 142.20877863 -65.3125 132.4375 C-68.74277108 132.4375 -69.06541829 132.77856335 -71.5 134.96484375 Z " fill="#010100" transform="translate(238.3125,49.5625)"/>
<path d="M0 0 C0.99 1.485 0.99 1.485 2 3 C1.05495605 3.15557373 0.10991211 3.31114746 -0.86376953 3.47143555 C-51.31738632 11.80845222 -98.81657476 24.56578957 -144.04907227 49.01953125 C-146 50 -146 50 -149 51 C-148.88398438 51.88300781 -148.76796875 52.76601562 -148.6484375 53.67578125 C-148.23502836 59.17412278 -147.93821987 63.33926697 -150.98046875 68.09765625 C-153.55170107 70.86338421 -156.22182629 73.4434236 -159 76 C-160.14675795 77.25123481 -161.27427597 78.52058321 -162.375 79.8125 C-162.92542969 80.44414062 -163.47585937 81.07578125 -164.04296875 81.7265625 C-165.59401651 83.52837846 -167.13701247 85.3361693 -168.67578125 87.1484375 C-176.80549661 96.71004561 -185.05665932 106.18321603 -194 115 C-200.29226322 102.41547356 -193.45895623 78.53646309 -189.45703125 65.9140625 C-178.54017972 33.85598285 -156.22249081 7.37472647 -125.93408203 -8.05224609 C-85.22583422 -27.67615553 -37.85554112 -25.35371116 0 0 Z " fill="#F3E32C" transform="translate(309,82)"/>
<path d="M0 0 C11.77483805 6.68497579 20.03780509 15.54839293 25.6875 27.875 C27.4342 36.25916 26.44999421 43.33884984 22.3125 50.875 C19.875 53.75 19.875 53.75 17.3125 55.875 C16.590625 56.555625 15.86875 57.23625 15.125 57.9375 C2.52181401 66.61969479 -15.12913505 66.46559621 -29.8203125 64.37890625 C-41.02048894 62.20041039 -50.08156958 58.53137535 -56.6875 48.875 C-57.97067892 45.02546324 -57.75393637 41.92761865 -57.6875 37.875 C-58.29078125 37.61460937 -58.8940625 37.35421875 -59.515625 37.0859375 C-63.30254659 34.97452438 -65.14307828 31.86789518 -66.6875 27.875 C-66.90779018 24.75830184 -66.81279104 21.75610411 -66.6640625 18.63671875 C-66.69407184 15.10061855 -67.9847177 12.92581829 -69.6875 9.875 C-70.44728496 4.01380176 -69.09933553 -0.39405364 -65.6875 -5.125 C-49.72565125 -19.81715624 -16.63398225 -8.2773864 0 0 Z " fill="#050500" transform="translate(203.6875,350.125)"/>
<path d="M0 0 C4.08589661 1.96857974 6.54778048 4.62931786 8.359375 8.7734375 C10.39940737 16.92135121 9.94250669 26.48120402 7.01171875 34.37890625 C6.55152344 35.70921875 6.55152344 35.70921875 6.08203125 37.06640625 C-2.03592263 58.56498755 -18.39148589 71.30561396 -38.73535156 80.73266602 C-44.47596607 83.28284809 -49.6715011 85.00964174 -55.98828125 85.37890625 C-56.73013672 85.42515137 -57.47199219 85.47139648 -58.23632812 85.51904297 C-69.36509546 86.12555647 -78.81486377 86.46106559 -87.734375 78.8984375 C-88.98828125 77.37890625 -88.98828125 77.37890625 -88.98828125 74.37890625 C-88.38050991 71.18150049 -87.16780707 68.54224368 -85.73828125 65.62890625 C-81.26213627 56.22513194 -79.28998311 45.86031291 -76.890625 35.7734375 C-76.71668213 35.05244873 -76.54273926 34.33145996 -76.36352539 33.58862305 C-75.89299749 31.62774569 -75.43626348 29.66357302 -74.98046875 27.69921875 C-73.61895028 23.14295616 -72.41103111 20.39962318 -68.5 17.59375 C-63.58044126 15.89187818 -58.96936452 15.98124759 -53.80078125 15.94140625 C-40.23052433 15.55241618 -32.0082847 12.6048636 -21.12890625 4.5 C-14.53856507 0.04906062 -7.87750556 -2.46075321 0 0 Z " fill="#F18733" transform="translate(386.98828125,122.62109375)"/>
<path d="M0 0 C9.29348057 3.76575979 17.73390603 8.91863552 24.1875 16.6875 C24.620625 17.20699219 25.05375 17.72648437 25.5 18.26171875 C29.1771606 23.53486919 28.99812077 29.49573713 28.1875 35.6875 C25.91134346 41.37789136 21.93171879 43.20737255 16.625 45.70703125 C5.35933227 50.23857388 -11.7459744 49.17724731 -22.8125 44.6875 C-25.6729104 43.18343444 -28.17013716 41.56764279 -30.8125 39.6875 C-27.43016925 38.56005642 -25.25542516 38.93770741 -21.8125 39.6875 C-19.75218967 39.80122701 -17.68840695 39.86218381 -15.625 39.875 C-14.05685547 39.89626953 -14.05685547 39.89626953 -12.45703125 39.91796875 C-9.65571779 39.95941489 -9.65571779 39.95941489 -7.8125 37.6875 C-7.47916667 35.1875 -7.47916667 35.1875 -7.8125 32.6875 C-10.62539691 29.87460309 -12.88865581 30.16532625 -16.8125 29.75 C-26.21281035 28.6231312 -33.87497297 27.44246053 -40.8125 20.6875 C-40.4825 19.6975 -40.1525 18.7075 -39.8125 17.6875 C-38.6575 18.0175 -37.5025 18.3475 -36.3125 18.6875 C-32.03749413 19.77151934 -28.20888547 19.84451377 -23.8125 19.6875 C-23.4825 17.3775 -23.1525 15.0675 -22.8125 12.6875 C-25.78901942 10.70315372 -27.69917186 10.11801976 -31.125 9.3125 C-36.17401437 8.00176249 -40.06611707 6.43388293 -43.8125 2.6875 C-44.1875 -0.1875 -44.1875 -0.1875 -43.8125 -3.3125 C-32.73652816 -12.25284022 -11.82080433 -4.21971975 0 0 Z " fill="#F1E12C" transform="translate(189.8125,356.3125)"/>
<path d="M0 0 C3 0.25 3 0.25 5 2.25 C6.40476222 5.40302469 7.48459078 8.68084359 8.625 11.9375 C8.94984375 12.82373047 9.2746875 13.70996094 9.609375 14.62304688 C11.38264068 19.65599211 12.71446733 23.90550415 12 29.25 C9 31.25 9 31.25 6.625 31.875 C4 31.25 4 31.25 1.5 28.25 C-0.86431448 24.05597719 -2.39292377 19.62496996 -3.875 15.0625 C-4.10251953 14.37349609 -4.33003906 13.68449219 -4.56445312 12.97460938 C-5.75606836 9.066868 -6.38417198 6.15279418 -5 2.25 C-3 0.25 -3 0.25 0 0 Z " fill="#F7F7F7" transform="translate(191,140.75)"/>
<path d="M0 0 C4.58977737 0 6.51491503 0.57555066 10 3.625 C12 7 12 7 11.9375 10.8125 C11.628125 11.864375 11.31875 12.91625 11 14 C8.01788442 15.49105779 6.31465295 15.50994661 3 15 C0.41340365 13.01560457 -1.43525717 10.86009771 -3 8 C-3 4.1491047 -2.72430376 2.72430376 0 0 Z " fill="#F2F2F2" transform="translate(204,176)"/>
</svg>
